<?xml version="1.0" encoding="UTF-8"?>
<svg id="Layer_2" data-name="Layer 2" xmlns="http://www.w3.org/2000/svg" xmlns:xlink="http://www.w3.org/1999/xlink" viewBox="0 0 1126.29 575.5">
  <defs>
    <style>
      .cls-1 {
        fill: url(#linear-gradient-2);
      }

      .cls-2 {
        fill: #fff;
      }

      .cls-3 {
        fill: #1c75bc;
      }

      .cls-4 {
        fill: #1d75bc;
      }

      .cls-5 {
        fill: url(#linear-gradient);
      }
    </style>
    <linearGradient id="linear-gradient" x1="225.18" y1="518.9" x2="345.08" y2="54.64" gradientUnits="userSpaceOnUse">
      <stop offset="0" stop-color="#1d75bc"/>
      <stop offset=".03" stop-color="#3986c4"/>
      <stop offset=".07" stop-color="#629fd0"/>
      <stop offset=".12" stop-color="#87b6db"/>
      <stop offset=".17" stop-color="#a8cae5"/>
      <stop offset=".23" stop-color="#c3daed"/>
      <stop offset=".29" stop-color="#d9e8f3"/>
      <stop offset=".37" stop-color="#eaf2f8"/>
      <stop offset=".47" stop-color="#f6f9fc"/>
      <stop offset=".6" stop-color="#fdfdfe"/>
      <stop offset=".97" stop-color="#fff"/>
    </linearGradient>
    <linearGradient id="linear-gradient-2" x1="955.88" y1="511.3" x2="743.31" y2="95.23" gradientUnits="userSpaceOnUse">
      <stop offset="0" stop-color="#1d75bc"/>
      <stop offset=".02" stop-color="#3986c4"/>
      <stop offset=".06" stop-color="#629fd0"/>
      <stop offset=".1" stop-color="#87b6db"/>
      <stop offset=".15" stop-color="#a8cae5"/>
      <stop offset=".2" stop-color="#c3daed"/>
      <stop offset=".26" stop-color="#d9e8f3"/>
      <stop offset=".33" stop-color="#eaf2f8"/>
      <stop offset=".41" stop-color="#f6f9fc"/>
      <stop offset=".53" stop-color="#fdfdfe"/>
      <stop offset=".86" stop-color="#fff"/>
    </linearGradient>
  </defs>
  <g id="Layer_1-2" data-name="Layer 1">
    <path class="cls-4" d="M1051.9,520.51l-4.61-24.93c-1.26-6.83.74-13.84,5.4-19,46.18-51.14,74.17-119.02,73.6-193.32C1125.09,126.02,995.65-1.3,838.42.01c-133.53,1.11-245.48,94.38-275.27,219.17C533.02,92.95,418.81-1.03,283.24,0,126.91,1.2-.05,129.23,0,285.56c.02,71.97,26.83,137.79,70.95,188.04,4.47,5.09,6.3,11.98,5.07,18.64l-5.23,28.27-10.17,54.99,79.04-34.81c6.04-2.66,12.96-2.51,18.87.44,38.25,19.07,81.36,29.8,126.93,29.8,134.59,0,247.71-93.64,277.68-219.18,29.97,125.55,143.09,219.18,277.68,219.18,44.98,0,87.56-10.47,125.45-29.09,5.85-2.87,12.68-2.95,18.65-.32l77.15,33.97-10.17-54.99ZM285.47,519.03c-128.79,0-233.56-104.78-233.56-233.56S156.68,51.9,285.47,51.9s233.56,104.78,233.56,233.56-104.78,233.56-233.56,233.56ZM607.26,285.47c0-128.79,104.78-233.56,233.56-233.56s233.56,104.78,233.56,233.56-104.78,233.56-233.56,233.56-233.56-104.78-233.56-233.56Z"/>
    <circle class="cls-5" cx="285.47" cy="285.47" r="233.56"/>
    <path class="cls-2" d="M563.15,219.2l-1.18-.26c-27.09-5.94-49.98-23.63-63.14-48.04-41.39-76.77-123.01-128.79-216.43-127.62-132.92,1.66-239.14,109.27-239.14,242.2,0,133.56,108.66,242.21,242.21,242.21s242.21-108.66,242.21-242.21v-.24c0-16.32,5.9-32.1,16.62-44.41l18.84-21.62ZM510.38,285.47c0,124.02-100.9,224.91-224.91,224.91S60.55,409.48,60.55,285.47,161.45,60.55,285.47,60.55c95.41,0,177.12,59.72,209.75,143.74l-1.32,3.85v4.7l15.59,26.48.82,40.5c.05,1.88.07,3.76.07,5.65Z"/>
    <circle class="cls-1" cx="840.5" cy="285.47" r="233.56"/>
    <circle class="cls-3" cx="329.43" cy="214.9" r="21.98"/>
    <circle class="cls-3" cx="768.58" cy="214.9" r="21.98"/>
    <path class="cls-2" d="M841.11,43.25c-133.84-.33-242.83,108.45-242.83,242.21v.14c0,9.5-2.85,18.77-8.18,26.63l-26.96,39.72h0c25.96,2.48,48.88,18.08,60.54,41.41,39.75,79.55,122,134.31,216.81,134.31,133.76,0,242.55-108.99,242.21-242.83-.33-132.8-108.8-241.27-241.6-241.6ZM840.5,510.38c-98.6,0-182.58-63.78-212.86-152.25l-9.34-26.5-4.21-23.76,1.67-30.74c4.4-120.17,103.51-216.58,224.74-216.58s224.91,100.89,224.91,224.91-100.89,224.91-224.91,224.91Z"/>
    <circle class="cls-2" cx="338.36" cy="210.43" r="8.92"/>
    <circle class="cls-2" cx="760.98" cy="220.09" r="8.92"/>
  </g>
</svg>